<svg width="324" height="43" viewBox="0 0 324 43" fill="none" xmlns="http://www.w3.org/2000/svg">
<path d="M13.9121 34.52L0.65711 21.87L13.9121 9.275H20.2371L6.92711 21.87L20.2371 34.52H13.9121ZM28.9099 26.82C28.9099 23.74 29.5333 21.045 30.7799 18.735C32.0266 16.3883 33.7316 14.5733 35.8949 13.29C38.0949 12.0067 40.5516 11.365 43.2649 11.365C45.6116 11.365 47.7933 11.915 49.8099 13.015C51.8266 14.0783 53.3666 15.49 54.4299 17.25V1.3H59.4899V42H54.4299V36.335C53.4399 38.1317 51.9733 39.6167 50.0299 40.79C48.0866 41.9267 45.8133 42.495 43.2099 42.495C40.5333 42.495 38.0949 41.835 35.8949 40.515C33.7316 39.195 32.0266 37.3433 30.7799 34.96C29.5333 32.5767 28.9099 29.8633 28.9099 26.82ZM54.4299 26.875C54.4299 24.6017 53.9716 22.6217 53.0549 20.935C52.1383 19.2483 50.8916 17.965 49.3149 17.085C47.7749 16.1683 46.0699 15.71 44.1999 15.71C42.3299 15.71 40.6249 16.15 39.0849 17.03C37.5449 17.91 36.3166 19.1933 35.3999 20.88C34.4833 22.5667 34.0249 24.5467 34.0249 26.82C34.0249 29.13 34.4833 31.1467 35.3999 32.87C36.3166 34.5567 37.5449 35.8583 39.0849 36.775C40.6249 37.655 42.3299 38.095 44.1999 38.095C46.0699 38.095 47.7749 37.655 49.3149 36.775C50.8916 35.8583 52.1383 34.5567 53.0549 32.87C53.9716 31.1467 54.4299 29.1483 54.4299 26.875ZM70.5329 6.965C69.5796 6.965 68.7729 6.635 68.1129 5.975C67.4529 5.315 67.1229 4.50833 67.1229 3.555C67.1229 2.60166 67.4529 1.795 68.1129 1.135C68.7729 0.474998 69.5796 0.144998 70.5329 0.144998C71.4496 0.144998 72.2196 0.474998 72.8429 1.135C73.5029 1.795 73.8329 2.60166 73.8329 3.555C73.8329 4.50833 73.5029 5.315 72.8429 5.975C72.2196 6.635 71.4496 6.965 70.5329 6.965ZM72.9529 11.86V42H67.9479V11.86H72.9529ZM92.703 37.38L102.053 11.86H107.388L95.563 42H89.733L77.908 11.86H83.298L92.703 37.38Z" fill="#01C5C4"/>
<path d="M125.106 26.875C125.106 23.7583 125.73 21.045 126.976 18.735C128.223 16.3883 129.946 14.5733 132.146 13.29C134.383 12.0067 136.931 11.365 139.791 11.365C143.495 11.365 146.538 12.2633 148.921 14.06C151.341 15.8567 152.936 18.35 153.706 21.54H148.316C147.803 19.7067 146.795 18.2583 145.291 17.195C143.825 16.1317 141.991 15.6 139.791 15.6C136.931 15.6 134.621 16.59 132.861 18.57C131.101 20.5133 130.221 23.2817 130.221 26.875C130.221 30.505 131.101 33.31 132.861 35.29C134.621 37.27 136.931 38.26 139.791 38.26C141.991 38.26 143.825 37.7467 145.291 36.72C146.758 35.6933 147.766 34.2267 148.316 32.32H153.706C152.9 35.4 151.286 37.875 148.866 39.745C146.446 41.5783 143.421 42.495 139.791 42.495C136.931 42.495 134.383 41.8533 132.146 40.57C129.946 39.2867 128.223 37.4717 126.976 35.125C125.73 32.7783 125.106 30.0283 125.106 26.875ZM165.389 1.3V42H160.384V1.3H165.389ZM172.05 26.82C172.05 23.74 172.673 21.045 173.92 18.735C175.166 16.3883 176.871 14.5733 179.035 13.29C181.235 12.0067 183.673 11.365 186.35 11.365C188.99 11.365 191.281 11.9333 193.225 13.07C195.168 14.2067 196.616 15.6367 197.57 17.36V11.86H202.63V42H197.57V36.39C196.58 38.15 195.095 39.6167 193.115 40.79C191.171 41.9267 188.898 42.495 186.295 42.495C183.618 42.495 181.198 41.835 179.035 40.515C176.871 39.195 175.166 37.3433 173.92 34.96C172.673 32.5767 172.05 29.8633 172.05 26.82ZM197.57 26.875C197.57 24.6017 197.111 22.6217 196.195 20.935C195.278 19.2483 194.031 17.965 192.455 17.085C190.915 16.1683 189.21 15.71 187.34 15.71C185.47 15.71 183.765 16.15 182.225 17.03C180.685 17.91 179.456 19.1933 178.54 20.88C177.623 22.5667 177.165 24.5467 177.165 26.82C177.165 29.13 177.623 31.1467 178.54 32.87C179.456 34.5567 180.685 35.8583 182.225 36.775C183.765 37.655 185.47 38.095 187.34 38.095C189.21 38.095 190.915 37.655 192.455 36.775C194.031 35.8583 195.278 34.5567 196.195 32.87C197.111 31.1467 197.57 29.1483 197.57 26.875ZM221.758 42.495C219.448 42.495 217.376 42.11 215.543 41.34C213.709 40.5333 212.261 39.4333 211.198 38.04C210.134 36.61 209.548 34.9783 209.438 33.145H214.608C214.754 34.6483 215.451 35.8767 216.698 36.83C217.981 37.7833 219.649 38.26 221.703 38.26C223.609 38.26 225.113 37.8383 226.213 36.995C227.313 36.1517 227.863 35.0883 227.863 33.805C227.863 32.485 227.276 31.5133 226.103 30.89C224.929 30.23 223.114 29.5883 220.658 28.965C218.421 28.3783 216.588 27.7917 215.158 27.205C213.764 26.5817 212.554 25.6833 211.528 24.51C210.538 23.3 210.043 21.7233 210.043 19.78C210.043 18.24 210.501 16.8283 211.418 15.545C212.334 14.2617 213.636 13.2533 215.323 12.52C217.009 11.75 218.934 11.365 221.098 11.365C224.434 11.365 227.129 12.2083 229.183 13.895C231.236 15.5817 232.336 17.8917 232.483 20.825H227.478C227.368 19.2483 226.726 17.9833 225.553 17.03C224.416 16.0767 222.876 15.6 220.933 15.6C219.136 15.6 217.706 15.985 216.643 16.755C215.579 17.525 215.048 18.5333 215.048 19.78C215.048 20.77 215.359 21.595 215.983 22.255C216.643 22.8783 217.449 23.3917 218.403 23.795C219.393 24.1617 220.749 24.5833 222.473 25.06C224.636 25.6467 226.396 26.2333 227.753 26.82C229.109 27.37 230.264 28.2133 231.218 29.35C232.208 30.4867 232.721 31.9717 232.758 33.805C232.758 35.455 232.299 36.94 231.383 38.26C230.466 39.58 229.164 40.625 227.478 41.395C225.828 42.1283 223.921 42.495 221.758 42.495ZM250.493 42.495C248.183 42.495 246.111 42.11 244.278 41.34C242.445 40.5333 240.996 39.4333 239.933 38.04C238.87 36.61 238.283 34.9783 238.173 33.145H243.343C243.49 34.6483 244.186 35.8767 245.433 36.83C246.716 37.7833 248.385 38.26 250.438 38.26C252.345 38.26 253.848 37.8383 254.948 36.995C256.048 36.1517 256.598 35.0883 256.598 33.805C256.598 32.485 256.011 31.5133 254.838 30.89C253.665 30.23 251.85 29.5883 249.393 28.965C247.156 28.3783 245.323 27.7917 243.893 27.205C242.5 26.5817 241.29 25.6833 240.263 24.51C239.273 23.3 238.778 21.7233 238.778 19.78C238.778 18.24 239.236 16.8283 240.153 15.545C241.07 14.2617 242.371 13.2533 244.058 12.52C245.745 11.75 247.67 11.365 249.833 11.365C253.17 11.365 255.865 12.2083 257.918 13.895C259.971 15.5817 261.071 17.8917 261.218 20.825H256.213C256.103 19.2483 255.461 17.9833 254.288 17.03C253.151 16.0767 251.611 15.6 249.668 15.6C247.871 15.6 246.441 15.985 245.378 16.755C244.315 17.525 243.783 18.5333 243.783 19.78C243.783 20.77 244.095 21.595 244.718 22.255C245.378 22.8783 246.185 23.3917 247.138 23.795C248.128 24.1617 249.485 24.5833 251.208 25.06C253.371 25.6467 255.131 26.2333 256.488 26.82C257.845 27.37 259 28.2133 259.953 29.35C260.943 30.4867 261.456 31.9717 261.493 33.805C261.493 35.455 261.035 36.94 260.118 38.26C259.201 39.58 257.9 40.625 256.213 41.395C254.563 42.1283 252.656 42.495 250.493 42.495ZM298.478 13.84V18.075H269.878V13.84H298.478ZM298.478 25.665V29.9H269.878V25.665H298.478ZM309.074 3.665H314.629L309.349 16.15H305.829L309.074 3.665ZM317.984 3.665H323.539L318.259 16.15H314.684L317.984 3.665Z" fill="#C0C0C0"/>
</svg>
