<svg width="129" height="75" viewBox="0 0 129 75" fill="none" xmlns="http://www.w3.org/2000/svg">
<g clip-path="url(#clip0)">
<path d="M129 73.0542C124.308 74.2497 121.405 73.1066 118.802 69.1886L100.282 43.5119L97.6046 39.9565L75.977 69.2739C73.506 72.8012 70.9141 74.335 66.302 73.0872L93.9967 35.832L68.2128 2.17968C72.6469 1.31581 75.7109 1.75502 78.4316 5.73505L97.6403 31.7317L116.99 5.8766C119.469 2.34936 122.135 1.00943 126.585 2.30864L116.588 15.5916L103.043 33.2656C101.43 35.2852 101.652 36.6678 103.136 38.6175L129 73.0542ZM0.0328951 35.2095L2.29782 24.0432C8.46565 1.94505 33.7416 -7.23761 51.1731 6.41664C61.36 14.4475 63.8919 25.8078 63.3879 38.5332H5.96659C5.10454 61.4389 21.556 75.2629 42.5295 68.2103C49.8864 65.7341 54.2198 59.9604 56.3889 52.7381C57.49 49.1188 59.3108 48.5526 62.7058 49.5871C60.973 58.6204 57.0623 66.1665 48.7979 70.8892C36.4507 77.9582 18.8247 75.672 9.55409 65.8475C4.03062 60.1465 1.74924 52.9243 0.725627 45.1998C0.564054 43.9229 0.241876 42.7071 0 41.4835C0.0212851 39.3932 0.0328951 37.3038 0.0328951 35.2134V35.2095V35.2095ZM6.07108 33.6747H57.9611C57.6225 17.1118 47.3312 5.34722 33.2656 5.24736C17.8262 5.12616 6.73962 16.6106 6.07011 33.6747H6.07108V33.6747Z" fill="#01C5C4"/>
</g>
<defs>
<clipPath id="clip0">
<rect width="129" height="75" fill="white"/>
</clipPath>
</defs>
</svg>
