<svg width="126" height="112" viewBox="0 0 126 112" fill="none" xmlns="http://www.w3.org/2000/svg">
<path d="M125.766 56.0128C125.766 47.6814 115.333 39.7858 99.3362 34.8894C103.028 18.5855 101.387 5.6141 94.1579 1.4612C92.4916 0.487067 90.5434 0.0256348 88.4156 0.0256348V5.74228C89.5949 5.74228 90.5434 5.97299 91.338 6.40879C94.8244 8.40833 96.3369 16.022 95.1577 25.8146C94.8757 28.2243 94.4143 30.7622 93.8503 33.3513C88.8258 32.1209 83.3399 31.1723 77.572 30.5571C74.1112 25.8146 70.5223 21.5079 66.9077 17.7395C75.2648 9.97208 83.1092 5.71664 88.4413 5.71664V0C81.3916 0 72.163 5.02449 62.8318 13.7404C53.5006 5.07576 44.2719 0.102541 37.2222 0.102541V5.81918C42.5287 5.81918 50.3987 10.049 58.7558 17.7652C55.1668 21.5335 51.5779 25.8146 48.1685 30.5571C42.3749 31.1723 36.889 32.1208 31.8645 33.377C31.2749 30.8135 30.8391 28.3268 30.5315 25.9428C29.3266 16.1501 30.8135 8.53651 34.2742 6.51133C35.0433 6.0499 36.043 5.84482 37.2222 5.84482V0.128176C35.0689 0.128176 33.1206 0.589608 31.4287 1.56374C24.2252 5.71664 22.6102 18.6624 26.3273 34.9151C10.3822 39.837 0 47.707 0 56.0128C0 64.3442 10.4335 72.2399 26.4298 77.1362C22.7384 93.4401 24.379 106.412 31.6081 110.564C33.2744 111.539 35.2227 112 37.3761 112C44.4257 112 53.6544 106.976 62.9856 98.2595C72.3168 106.924 81.5454 111.897 88.5951 111.897C90.7484 111.897 92.6967 111.436 94.3886 110.462C101.592 106.309 103.207 93.3632 99.49 77.1105C115.384 72.2142 125.766 64.3186 125.766 56.0128V56.0128ZM92.3891 38.9142C91.4406 42.2211 90.2614 45.6306 88.9283 49.0401C87.8773 46.9892 86.775 44.9384 85.5701 42.8876C84.3909 40.8368 83.1348 38.8373 81.8787 36.889C85.5189 37.4273 89.0309 38.0938 92.3891 38.9142ZM80.6482 66.2156C78.6486 69.6764 76.5978 72.9577 74.4701 76.0082C70.6505 76.3415 66.7796 76.5209 62.883 76.5209C59.0121 76.5209 55.1412 76.3415 51.3472 76.0339C49.2195 72.9833 47.143 69.7276 45.1435 66.2925C43.1952 62.9343 41.4264 59.5248 39.8114 56.0897C41.4008 52.6546 43.1952 49.2195 45.1179 45.8613C47.1174 42.4005 49.1682 39.1192 51.2959 36.0687C55.1156 35.7354 58.9865 35.556 62.883 35.556C66.7539 35.556 70.6248 35.7354 74.4188 36.043C76.5466 39.0936 78.623 42.3493 80.6226 45.7844C82.5708 49.1426 84.3397 52.5521 85.9547 55.9872C84.3397 59.4223 82.5708 62.8574 80.6482 66.2156ZM88.9283 62.883C90.3126 66.3181 91.4919 69.7533 92.466 73.0858C89.1078 73.9062 85.5701 74.5983 81.9043 75.1366C83.1604 73.1627 84.4166 71.1376 85.5958 69.0611C86.775 67.0103 87.8773 64.9338 88.9283 62.883ZM62.9343 90.2357C60.5502 87.7748 58.1662 85.0318 55.8077 82.0325C58.1149 82.135 60.4733 82.2119 62.8574 82.2119C65.2671 82.2119 67.6512 82.1607 69.984 82.0325C67.6768 85.0318 65.2927 87.7748 62.9343 90.2357ZM43.8617 75.1366C40.2216 74.5983 36.7095 73.9318 33.3513 73.1115C34.2998 69.8045 35.479 66.3951 36.8121 62.9856C37.8631 65.0364 38.9654 67.0872 40.1703 69.138C41.3751 71.1888 42.6056 73.1884 43.8617 75.1366ZM62.8061 21.7899C65.1902 24.2509 67.5743 26.9938 69.9327 29.9931C67.6255 29.8906 65.2671 29.8137 62.883 29.8137C60.4733 29.8137 58.0893 29.865 55.7565 29.9931C58.0636 26.9938 60.4477 24.2509 62.8061 21.7899ZM43.8361 36.889C42.58 38.8629 41.3239 40.8881 40.1446 42.9645C38.9654 45.0153 37.8631 47.0661 36.8121 49.117C35.4278 45.6818 34.2486 42.2467 33.2744 38.9142C36.6326 38.1195 40.1703 37.4273 43.8361 36.889ZM20.6363 68.9842C11.5615 65.1133 5.691 60.0375 5.691 56.0128C5.691 51.9881 11.5615 46.8867 20.6363 43.0414C22.8409 42.0929 25.2506 41.247 27.7372 40.4523C29.1984 45.4768 31.1211 50.7063 33.5051 56.0641C31.1467 61.3962 29.2497 66.6001 27.8141 71.599C25.2763 70.8043 22.8666 69.9327 20.6363 68.9842ZM34.428 105.617C30.9416 103.617 29.4292 96.0037 30.6084 86.211C30.8904 83.8013 31.3518 81.2634 31.9158 78.6743C36.9403 79.9048 42.4262 80.8533 48.1941 81.4685C51.6548 86.211 55.2438 90.5177 58.8583 94.2861C50.5012 102.054 42.6569 106.309 37.3248 106.309C36.1712 106.283 35.1971 106.053 34.428 105.617V105.617ZM95.2346 86.0829C96.4394 95.8755 94.9526 103.489 91.4919 105.514C90.7228 105.976 89.723 106.181 88.5438 106.181C83.2373 106.181 75.3674 101.951 67.0103 94.2348C70.5992 90.4665 74.1881 86.1854 77.5976 81.4429C83.3912 80.8277 88.8771 79.8791 93.9016 78.623C94.4912 81.2122 94.9526 83.6988 95.2346 86.0829V86.0829ZM105.104 68.9842C102.9 69.9327 100.49 70.7787 98.0032 71.5734C96.542 66.5489 94.6193 61.3193 92.2353 55.9615C94.5937 50.6294 96.4907 45.4255 97.9263 40.4266C100.464 41.2213 102.874 42.0929 105.13 43.0414C114.205 46.9123 120.075 51.9881 120.075 56.0128C120.049 60.0375 114.179 65.1389 105.104 68.9842V68.9842Z" fill="#01C5C4"/>
<path d="M62.8574 67.7281C69.3275 67.7281 74.5726 62.483 74.5726 56.0128C74.5726 49.5426 69.3275 44.2975 62.8574 44.2975C56.3872 44.2975 51.1421 49.5426 51.1421 56.0128C51.1421 62.483 56.3872 67.7281 62.8574 67.7281Z" fill="#01C5C4"/>
</svg>
